<svg width="2000" height="1000" viewBox="0 0 2000 1000" fill="none" xmlns="http://www.w3.org/2000/svg">
<path d="M427 903.319H1573V97H427V903.319Z" fill="#CA3432"/>
<path fill-rule="evenodd" clip-rule="evenodd" d="M1077.78 522.383H912.702C912.702 522.383 906.35 522.383 906.35 509.691C906.35 509.691 906.35 503.339 909.529 500.16L922.227 493.814V487.462V344.61C922.227 344.61 925.4 338.264 922.227 335.085C919.048 335.085 912.702 331.912 912.702 331.912C912.702 331.912 909.523 325.566 909.523 319.214C909.523 319.214 909.523 316.041 915.868 309.688H1077.78C1077.78 309.688 1080.95 306.516 1087.3 312.874C1093.65 319.22 1109.52 338.27 1112.69 344.616C1112.69 344.616 1115.88 360.487 1103.17 363.666C1103.17 363.666 1093.65 363.666 1084.12 357.314C1084.12 357.314 1077.78 347.789 1068.25 341.443H988.89V398.581H1061.91C1061.91 398.581 1065.08 395.408 1068.25 395.408C1068.25 395.408 1077.78 382.71 1090.47 385.883C1090.47 385.883 1103.17 389.062 1093.65 408.106C1077.78 430.329 1074.61 433.502 1074.61 436.675C1074.61 436.675 1068.26 446.2 1061.91 443.027C1061.91 443.027 1052.39 446.2 1049.22 436.675C1049.22 436.675 1049.22 433.502 1042.87 433.502H992.075V487.468H1055.56C1055.56 487.468 1065.09 487.468 1071.44 484.295C1071.44 484.295 1080.96 477.949 1087.31 471.597C1087.31 471.597 1096.83 465.251 1106.35 465.251C1106.35 465.251 1115.88 471.597 1112.7 477.949C1112.7 477.949 1112.7 490.647 1087.31 519.216C1087.3 519.21 1080.95 522.383 1077.78 522.383ZM1344.43 493.814C1344.43 493.814 1306.34 522.383 1255.54 522.383C1255.54 522.383 1207.93 528.735 1173 490.641C1173 490.641 1138.08 458.892 1138.08 411.273C1138.08 411.273 1138.08 366.833 1176.18 331.912C1176.18 331.912 1204.75 306.516 1239.67 306.516C1239.67 306.516 1255.54 306.516 1280.94 312.868C1280.94 312.868 1293.63 316.041 1299.98 312.868C1299.98 312.868 1309.51 306.515 1322.2 319.214C1322.2 319.214 1331.73 331.912 1334.9 354.135V366.833C1334.9 366.833 1331.73 385.877 1312.68 370.006C1312.68 370.006 1290.45 344.61 1277.75 341.437C1277.75 341.437 1252.36 331.912 1233.31 347.783C1233.31 347.783 1207.92 360.481 1207.92 411.273C1207.92 458.892 1220.61 474.763 1242.83 487.462C1242.83 487.462 1252.35 493.814 1271.4 490.641C1271.4 490.641 1280.93 490.641 1280.93 477.943V436.669C1280.93 436.669 1280.93 430.323 1277.75 430.323C1277.75 430.323 1268.23 427.15 1268.23 414.452C1268.23 404.927 1280.93 404.927 1280.93 404.927H1350.76C1350.76 404.927 1360.28 404.927 1360.28 417.625C1360.28 417.625 1360.28 420.804 1353.94 427.15L1350.76 430.323V436.669C1350.76 436.669 1347.58 446.194 1350.76 462.065V471.59C1350.76 471.59 1357.1 474.763 1357.1 481.116C1357.13 487.462 1350.78 493.814 1344.43 493.814ZM884.132 516.043C887.305 512.858 887.306 509.691 887.306 509.691C887.306 500.16 874.607 496.987 874.607 496.987C865.082 493.814 861.909 487.462 861.909 487.462L785.721 316.041C785.721 312.868 779.375 309.688 779.375 309.688H709.532C709.532 309.688 700.013 309.688 700.013 319.214C700.013 328.739 706.359 328.739 706.359 328.739C719.057 331.912 722.23 338.264 722.23 338.264C731.756 350.962 725.41 360.481 725.41 360.481C725.41 360.481 677.79 468.417 671.438 481.116C665.092 493.814 655.567 496.987 652.394 496.987C649.221 500.16 639.696 500.16 639.696 509.691C639.696 522.383 649.221 519.216 649.221 519.216H700.013C715.885 519.216 712.712 509.691 712.712 509.691C712.712 500.16 706.359 496.987 706.359 496.987C700.013 496.987 703.186 490.641 703.186 490.641L706.359 484.289H785.721L804.771 519.21H871.434C871.434 519.21 877.78 519.21 884.132 516.043ZM722.23 449.367C722.23 449.367 741.281 398.575 744.454 395.402H747.627L769.85 449.367H722.23ZM674.617 690.631H655.567V627.14H680.963C687.315 627.14 693.661 627.14 700.013 630.326C706.359 633.499 709.532 639.851 709.532 646.203C709.532 652.543 706.353 658.883 703.186 662.068C696.834 665.253 690.488 668.42 684.136 668.42H674.617V690.631ZM680.963 652.537C684.136 652.537 690.488 652.537 690.488 649.364C690.488 643.011 687.315 643.011 680.963 643.011H674.617V652.537H680.963ZM776.196 658.876C776.196 677.933 763.504 690.631 744.454 690.631C728.583 690.631 715.885 677.939 715.885 658.876C715.885 639.845 728.583 627.134 744.454 627.134C763.504 627.134 776.196 639.845 776.196 658.876ZM738.108 658.876C738.108 665.241 738.108 674.766 744.454 674.766C753.979 674.766 753.979 665.241 753.979 658.876C753.979 652.537 753.979 639.845 744.454 639.845C738.108 639.845 738.108 652.537 738.108 658.876ZM849.211 690.631H833.34L823.815 655.703L817.469 690.631H798.419L782.548 627.134H801.586L811.117 662.062L817.469 627.134H833.34L842.859 662.062L849.211 627.134H865.082L849.211 690.631ZM922.227 690.631H877.78V627.134H922.227V643.011H896.831V652.537H919.048V665.241H896.831V674.766H922.227V690.631ZM976.192 690.631L966.667 665.241H960.321V690.631H941.271V627.14H973.019C979.365 627.14 985.717 627.14 988.89 630.326C995.242 633.499 995.242 639.851 995.242 646.203C995.242 655.716 992.063 658.883 985.717 662.068L995.242 690.637L976.192 690.631ZM966.667 652.537C973.019 652.537 976.192 652.537 976.192 646.197C976.192 646.197 976.192 643.011 973.019 643.011C973.019 639.838 969.846 639.838 969.846 639.838H960.321V652.53L966.667 652.537ZM1074.6 690.631H1055.55V643.011H1042.86V627.134H1087.3V643.011H1074.6V690.631ZM1153.97 658.876C1153.97 677.933 1144.44 690.631 1125.39 690.631C1106.35 690.631 1096.82 677.939 1096.82 658.876C1096.82 639.845 1106.35 627.134 1125.39 627.134C1144.44 627.134 1153.97 639.845 1153.97 658.876ZM1115.87 658.876C1115.87 665.241 1115.87 674.766 1125.39 674.766C1134.91 674.766 1134.91 665.241 1134.91 658.876C1134.91 652.537 1134.91 639.845 1125.39 639.845C1115.87 639.845 1115.87 652.537 1115.87 658.876ZM1223.8 658.876C1223.8 677.933 1214.27 690.631 1195.23 690.631C1176.18 690.631 1166.66 677.939 1166.66 658.876C1166.66 639.845 1176.18 627.134 1195.23 627.134C1214.27 627.134 1223.8 639.845 1223.8 658.876ZM1185.7 658.876C1185.7 665.241 1185.7 674.766 1195.23 674.766C1204.76 674.766 1204.76 665.241 1204.76 658.876C1204.76 652.537 1204.76 639.845 1195.23 639.845C1185.7 639.845 1185.7 652.537 1185.7 658.876ZM1284.12 690.631H1239.67V627.134H1258.72V674.766H1284.12V690.631ZM1309.52 668.414C1312.69 674.766 1315.85 674.766 1322.21 674.766C1325.39 674.766 1328.55 674.766 1328.55 671.581C1328.55 668.408 1325.38 668.408 1322.21 668.408C1309.52 665.235 1296.81 662.056 1296.81 646.191C1296.81 639.838 1299.98 636.653 1303.16 630.313C1309.51 627.128 1315.85 627.128 1322.2 627.128C1331.73 627.128 1341.24 630.313 1347.6 643.005L1331.73 646.191C1328.54 643.005 1325.37 639.838 1322.19 639.838C1319.02 639.838 1315.84 643.011 1315.84 646.191C1315.84 649.364 1319.03 649.364 1322.19 649.364C1328.54 649.364 1334.89 652.537 1338.07 652.537C1344.42 655.71 1347.6 662.062 1347.6 668.414C1347.6 684.279 1334.9 690.631 1322.2 690.631C1306.33 690.631 1296.8 684.279 1293.63 671.587L1309.52 668.414Z" fill="white"/>
</svg>
