<svg width="2000" height="1000" viewBox="0 0 2000 1000" fill="none" xmlns="http://www.w3.org/2000/svg">
<g clip-path="url(#clip0_73_102)">
<path d="M932.65 493.859V721.418H986.223V493.859H932.65ZM836.218 407.121H781.114C774.991 407.121 776.012 412.733 776.012 412.733C777.032 419.876 778.563 431.611 778.563 456.102C778.563 510.186 771.93 587.74 712.744 661.722L708.662 666.824C708.662 666.824 672.947 417.835 672.436 413.243C672.436 413.243 672.436 407.631 667.334 407.631H611.72C606.618 407.631 606.618 413.243 606.618 413.243C605.087 441.816 589.27 681.621 414.263 720.398C451.51 724.479 496.409 712.744 535.697 688.764C584.168 658.661 616.822 614.271 627.537 563.249C627.537 563.249 648.966 696.927 651.517 727.541V729.582L649.986 730.602C601.005 756.623 545.391 770.91 489.776 770.91C352.016 770.91 230.073 689.274 176.5 564.78C208.133 711.214 338.75 817.85 491.307 817.85C669.375 817.85 775.501 668.865 793.869 562.739C793.869 562.739 817.85 717.336 818.36 722.438H891.322C890.302 715.806 841.83 418.856 841.32 414.264C841.32 414.264 841.32 408.651 836.218 408.651V407.121ZM219.358 537.228C219.358 373.956 357.118 241.298 526.002 241.298C630.598 241.298 728.051 293.851 784.685 379.058C743.357 262.728 628.047 183.133 498.96 183.133C332.118 183.133 196.398 313.24 196.398 472.939C196.398 516.819 207.113 559.677 227.012 598.965C222.42 579.066 219.358 558.147 219.358 537.738V537.228ZM1497.98 526.513C1478.59 504.063 1451.55 492.328 1418.89 492.328C1385.73 492.328 1357.67 503.043 1335.22 524.472C1313.28 545.391 1302.05 573.453 1302.05 608.149C1302.05 642.333 1312.77 669.886 1334.2 690.294C1355.62 710.703 1386.75 720.908 1425.53 720.908C1501.04 720.908 1517.37 668.865 1523.49 652.028L1504.1 645.905C1486.75 677.539 1447.98 679.58 1425.02 678.049C1408.69 677.029 1393.89 671.416 1382.16 663.253C1370.42 654.579 1362.26 642.333 1358.69 623.455L1357.67 616.312H1527.06C1526.55 579.066 1516.86 548.963 1497.98 527.023V526.513ZM1361.75 584.168C1359.2 584.168 1359.2 581.617 1359.2 580.596C1361.24 567.331 1366.34 557.126 1375.52 547.942C1385.73 537.228 1401.55 531.105 1418.38 531.105C1433.69 531.105 1445.93 535.697 1456.65 544.371C1465.32 552.024 1471.45 562.739 1475.02 577.535C1475.53 579.066 1476.55 583.658 1472.47 583.658H1361.75V584.168ZM1668.39 491.307C1604.1 491.307 1581.14 530.595 1574 548.963C1574 549.473 1571.45 555.596 1571.45 555.596L1592.88 562.739C1592.88 562.739 1606.65 522.941 1661.25 525.492C1716.35 527.533 1709.72 572.943 1709.72 580.086C1679.11 570.902 1635.74 571.923 1607.16 584.678C1571.45 601.005 1565.84 633.66 1567.37 657.64C1568.9 693.356 1600.53 718.357 1641.35 720.398C1678.09 722.438 1694.41 714.275 1709.72 699.478L1709.21 720.398H1757.68V660.702V587.229V574.474V563.759C1758.7 536.717 1739.82 490.797 1668.39 490.797V491.307ZM1709.21 667.845C1709.21 671.416 1708.19 673.967 1705.13 675.498C1695.94 680.09 1676.56 686.213 1652.57 684.682C1627.57 682.641 1617.88 664.783 1616.35 657.13C1615.84 654.069 1610.23 620.904 1642.37 610.7C1663.29 604.067 1689.82 608.149 1704.11 612.23C1708.19 613.251 1709.21 615.802 1709.21 620.904V668.355V667.845ZM982.652 407.121H938.263C931.63 407.121 932.65 413.754 932.65 413.754C932.65 420.897 932.65 454.571 932.65 461.715H987.244V413.243C987.244 413.243 987.754 407.631 982.142 407.631L982.652 407.121ZM1255.11 407.121H1209.7C1205.11 407.121 1205.11 412.223 1205.11 412.223V505.594L1198.48 502.022C1191.33 498.451 1184.19 495.9 1176.54 494.369C1168.88 492.838 1159.7 492.328 1149.49 492.328C1113.78 492.328 1084.7 502.532 1063.27 523.452C1042.35 543.86 1031.12 573.453 1031.12 609.679C1031.12 641.823 1040.31 668.865 1058.16 690.294C1076.02 711.214 1102.04 721.928 1136.23 721.928C1185.21 721.928 1204.6 692.335 1204.6 692.335V720.908H1259.7V667.334C1259.7 607.128 1259.7 412.733 1259.7 412.733C1259.7 412.733 1259.7 407.121 1255.11 407.121ZM1202.05 659.171C1196.95 663.763 1190.31 667.334 1182.15 670.396C1173.48 673.967 1163.27 675.498 1152.05 675.498C1133.68 675.498 1118.88 669.375 1108.17 657.13C1097.45 644.885 1092.35 627.027 1092.35 603.046C1092.35 579.576 1097.45 562.228 1107.15 551.514C1117.35 540.289 1132.66 534.676 1153.07 534.676C1163.78 534.676 1173.99 536.207 1183.17 539.779C1191.33 542.84 1197.46 545.901 1202.05 549.983C1203.58 551.514 1205.11 554.065 1205.11 557.636V651.007C1205.11 654.579 1203.58 657.13 1202.05 658.661V659.171Z" fill="#00B0F0"/>
<path d="M1790.85 369.363C1771.97 369.363 1757.69 383.65 1757.69 402.528C1757.69 420.896 1771.97 435.692 1790.85 435.692C1809.73 435.692 1824.02 421.406 1824.02 402.528C1824.02 384.16 1809.73 369.363 1790.85 369.363ZM1790.85 373.955C1806.67 373.955 1818.91 386.711 1818.91 402.528C1818.91 418.345 1807.18 431.1 1790.85 431.1C1775.03 431.1 1762.79 418.345 1762.79 402.528C1762.79 386.711 1774.52 373.955 1790.85 373.955ZM1783.71 404.569H1791.87L1802.59 421.406H1808.2L1796.97 404.569C1802.08 403.548 1806.67 400.487 1806.67 393.854C1806.67 387.221 1803.1 383.139 1794.42 383.139H1779.63V421.406H1784.22V404.569H1783.71ZM1783.71 400.487V387.221H1792.38C1796.97 387.221 1801.57 388.242 1801.57 393.854C1801.57 400.487 1795.95 400.487 1790.34 400.487H1784.22H1783.71Z" fill="#00B0F0"/>
</g>
<defs>
<clipPath id="clip0_73_102">
<rect width="1647" height="633.96" fill="white" transform="translate(177 183)"/>
</clipPath>
</defs>
</svg>
