<svg width="2000" height="1000" viewBox="0 0 2000 1000" fill="none" xmlns="http://www.w3.org/2000/svg">
<path fill-rule="evenodd" clip-rule="evenodd" d="M404.782 282.282H172.984V357.491H299.571L164.759 631.9V718.02H404.845V640.268H269.054L404.845 357.5L404.782 282.282ZM579.823 638L590.885 718.011H686.563L604.81 282.282H485.451C458.651 427.538 431.782 572.79 404.845 718.02L499.83 718.011L511.292 638H579.823ZM520.175 565.041L545.055 389.743L570.54 565.041H520.175ZM946.283 282.282L946.23 718.011H840.61L778.356 480.673V718.073L686.563 718.011L686.652 282.282H790.04L857.469 526.094L857.549 282.282H946.283ZM1182.94 696.697C1186.6 693.38 1190.15 689.61 1193.25 685.511C1196.35 681.411 1199.05 676.983 1201.24 672.333C1203.42 667.67 1205.14 662.799 1206.36 657.794C1209.48 643.371 1211.28 628.696 1211.76 613.947L1212.31 600.351V282.282H1117.81L1117.85 600.351C1117.68 607.387 1117.25 614.413 1116.56 621.417C1116.32 623.481 1115.97 625.532 1115.52 627.561C1115.13 629.477 1114.65 631.373 1114.08 633.243C1112.74 637.493 1111.18 640.748 1107.37 644.011C1104.26 646.528 1099.75 648.831 1095.67 649.533C1091.19 650.369 1086.38 650.147 1081.58 649.444C1079.19 648.887 1076.88 648.011 1074.71 646.839C1072.59 645.715 1070.67 644.259 1069.01 642.526C1065.99 639.041 1064.55 635.146 1063.33 631.322C1062.69 628.99 1062.22 626.611 1061.94 624.209C1061.51 621.114 1061.05 616.979 1060.72 612.827C1060.6 608.665 1060.47 604.504 1060.43 549.418C1060.39 494.322 1060.47 388.311 1060.52 282.282H967.348L967.286 600.351C967.873 623.311 967.686 646.092 978.899 669.825C982.964 678.015 988.364 685.47 994.878 691.886C1002.81 699.719 1011.93 706.262 1021.88 711.28C1026.94 713.832 1032.2 716.01 1040.81 718.42C1049.43 720.83 1061.37 723.444 1073.5 724.769C1085.6 726.085 1097.87 726.094 1109.99 724.787C1122.11 723.489 1134.07 720.848 1142.25 718.625C1150.43 716.402 1154.84 714.588 1159.11 712.507C1163.37 710.426 1167.54 708.096 1171.51 705.482C1175.47 702.886 1179.27 700.022 1182.94 696.697ZM1257.35 300.128C1253.8 303.098 1249.52 307.082 1245.7 311.457C1241.86 315.841 1238.5 320.633 1235.64 325.693C1232.78 330.753 1230.43 336.106 1228.5 341.752C1222.63 359.163 1220.72 377.712 1222.28 395.736C1223.24 407.713 1225.71 420.109 1230.29 432.131C1232.49 437.964 1235.12 443.646 1238.69 449.746C1242.25 455.855 1246.75 462.373 1251.57 468.66C1261.05 481.126 1271.8 492.206 1284.35 503.437C1290.51 509.012 1297.07 514.756 1303.68 520.438C1310.28 526.12 1316.95 531.74 1323.25 537.04C1329.58 542.339 1335.55 547.319 1341.28 552.565C1347.02 557.815 1352.53 563.303 1357.81 569.016C1359.32 570.803 1360.74 572.661 1362.11 574.573C1363.46 576.485 1364.77 578.45 1366.54 581.882C1368.31 585.315 1370.55 590.232 1372.22 595.336C1373.9 600.44 1375.01 605.731 1375.61 611.084C1376.18 616.446 1376.21 621.852 1375.83 626.04C1375.43 630.229 1374.63 633.181 1373.37 635.92C1372.1 638.676 1370.38 641.201 1368.3 643.416C1366.22 645.603 1363.77 647.47 1360.72 648.964C1354.64 651.943 1346.48 653.25 1339.15 651.65C1335.7 650.896 1332.37 649.673 1329.26 648.013C1324.8 645.669 1321.15 642.037 1318.78 637.591C1314.44 628.308 1313.52 617.78 1313.38 607.643V567.637H1218.45C1218.45 581.1 1218.42 594.554 1218.47 608.016C1218.49 610.479 1218.5 612.969 1218.61 616.686C1218.79 624.298 1219.6 635.448 1221.8 645.007C1222.88 649.853 1224.2 654.655 1225.76 659.181C1227.31 663.707 1229.11 667.958 1231.26 672.021C1233.42 676.103 1235.95 679.989 1238.77 683.625C1241.6 687.262 1244.73 690.668 1248.12 693.789C1252.89 697.9 1257.98 701.62 1263.35 704.913C1279.24 714.899 1297.89 719.923 1314.97 722.751C1337.8 726.379 1360.59 727.072 1383.77 722.786C1389.2 721.784 1394.56 720.508 1399.86 718.963C1404.63 717.522 1408.53 716.001 1412.33 714.259C1416.13 712.507 1419.83 710.542 1423.4 708.381C1427 706.22 1430.47 703.873 1435.39 699.605C1440.31 695.336 1446.63 689.139 1451.88 682.105C1457.12 675.071 1461.28 667.193 1464.25 658.897C1467.2 650.591 1468.97 641.886 1469.51 633.083C1470.84 618.495 1470.56 603.805 1468.65 589.281C1467.65 581.377 1465.83 573.598 1463.21 566.072C1461.83 561.985 1460.17 557.993 1458.26 554.121C1452.79 542.938 1446.18 532.345 1438.55 522.51C1434.57 517.442 1430.33 512.595 1424.04 506.051C1417.76 499.506 1409.45 491.246 1400.96 483.18C1384.88 467.815 1367.93 453.41 1351.27 438.72C1342.52 430.877 1334.15 422.359 1327.64 413.742C1325.64 411.207 1323.82 408.533 1322.2 405.739C1318.36 399.159 1315.39 390.525 1315.05 382.549C1314.82 378.646 1315 374.73 1315.59 370.865C1316.13 367.566 1316.88 365.174 1317.99 362.96C1319.1 360.728 1320.58 358.7 1322.35 356.949C1324.1 355.197 1326.13 353.739 1328.49 352.529C1336.12 348.704 1344.87 347.748 1353.15 349.835C1355.99 350.591 1358.87 351.782 1361.4 353.507C1366.5 356.78 1369.75 362.808 1371.16 368.064C1372.95 374.558 1373.9 381.255 1373.97 387.991V422.332H1463.92C1463.9 415.167 1463.79 408.002 1463.59 400.84C1463.42 394.094 1463.16 387.35 1462.81 380.61C1462.25 369.193 1461.28 361.243 1459.29 351.836C1457.54 343.121 1454.74 333.865 1449.55 324.839C1447.07 320.512 1444.15 316.45 1440.84 312.719C1435 306.214 1428.25 300.597 1420.78 296.047C1417.59 294.073 1414.33 292.223 1411 290.489C1407.68 288.746 1404.3 287.11 1396.27 284.469C1388.29 281.828 1375.65 278.174 1362.71 276.262C1349.76 274.348 1336.62 274.166 1323.63 275.72C1310.67 277.276 1297.92 280.575 1289.97 282.94C1282.01 285.305 1278.86 286.746 1275.74 288.302C1272.65 289.858 1269.63 291.547 1266.69 293.379C1263.41 295.388 1260.29 297.644 1257.35 300.128ZM1479 600.565C1478.98 615.245 1478.94 630.122 1482.35 644.981C1483.41 649.827 1484.73 654.628 1486.29 659.155C1487.85 663.681 1489.66 667.931 1491.81 671.995C1493.96 676.076 1496.48 679.962 1499.32 683.599C1502.15 687.236 1505.26 690.641 1508.66 693.763C1513.43 697.873 1518.53 701.593 1523.89 704.886C1539.77 714.872 1558.42 719.896 1575.49 722.724C1598.35 726.352 1621.12 727.045 1644.3 722.759C1649.73 721.757 1655.11 720.481 1660.41 718.936C1665.16 717.495 1669.07 715.975 1672.87 714.232C1676.68 712.48 1680.36 710.515 1683.95 708.354C1687.54 706.194 1691.02 703.846 1695.94 699.578C1700.84 695.31 1707.18 689.112 1712.42 682.078C1717.67 675.045 1721.82 667.166 1724.65 658.87C1727.48 650.574 1728.99 641.851 1729.83 635.004C1730.68 628.175 1730.85 623.231 1730.88 618.287C1730.93 613.343 1730.81 608.399 1730.52 603.463C1730.24 598.709 1729.79 593.967 1729.17 589.245C1728.18 581.34 1726.37 573.561 1723.75 566.037C1722.36 561.949 1720.7 557.957 1718.78 554.086C1713.32 542.899 1706.71 532.305 1699.07 522.475C1694.53 516.739 1689.7 511.245 1684.58 506.015C1677.05 498.223 1669.35 490.597 1661.48 483.145C1645.41 467.779 1628.46 453.374 1611.79 438.685C1600.53 428.601 1589.93 417.281 1583 406.22C1576.4 395.375 1574.01 382.484 1576.28 369.993C1576.64 367.539 1577.39 365.138 1578.52 362.924C1579.63 360.692 1581.11 358.665 1582.86 356.913C1584.67 355.131 1586.75 353.64 1589.02 352.494C1596.65 348.668 1605.4 347.712 1613.68 349.799C1616.52 350.555 1619.39 351.747 1621.93 353.472C1627.03 356.744 1630.28 362.773 1631.67 368.028C1633.69 375.329 1634.33 381.295 1634.5 387.955V422.296H1724.43C1724.41 415.128 1724.3 407.961 1724.12 400.795C1723.94 394.052 1723.68 387.311 1723.33 380.575C1722.77 369.14 1721.8 361.208 1719.82 351.8C1718.05 343.086 1715.27 333.829 1710.08 324.804C1707.59 320.48 1704.67 316.419 1701.37 312.684C1695.53 306.178 1688.76 300.561 1681.29 296.011C1678.12 294.037 1674.85 292.188 1671.53 290.454C1668.19 288.711 1664.82 287.075 1656.82 284.434C1648.8 281.793 1636.16 278.138 1623.25 276.226C1610.31 274.313 1597.16 274.13 1584.16 275.684C1571.19 277.24 1558.46 280.539 1550.51 282.904C1542.55 285.27 1539.39 286.71 1536.28 288.266C1533.18 289.823 1530.16 291.517 1527.21 293.344C1524.28 295.184 1521.43 297.158 1517.88 300.137C1514.31 303.107 1510.03 307.091 1506.2 311.466C1502.38 315.849 1499.02 320.642 1496.16 325.702C1493.3 330.761 1490.95 336.114 1489.02 341.761C1483.15 359.172 1481.24 377.72 1482.79 395.745C1483.74 407.722 1486.23 420.118 1490.81 432.14C1493.01 437.973 1495.64 443.655 1499.19 449.755C1502.77 455.864 1507.28 462.382 1512.08 468.669C1521.57 481.135 1532.31 492.215 1544.85 503.445C1551.01 509.021 1557.59 514.765 1564.18 520.447C1570.78 526.129 1577.47 531.749 1583.77 537.049C1590.08 542.348 1596.07 547.328 1601.78 552.583C1607.52 557.829 1613 563.351 1616.43 567.05C1619.89 570.75 1621.28 572.644 1622.63 574.564C1624 576.494 1625.29 578.459 1627.04 581.891C1628.81 585.333 1631.03 590.241 1632.72 595.345C1635.97 605.236 1637.19 615.676 1636.33 626.049C1635.95 630.237 1635.15 633.19 1633.89 635.928C1631.33 641.474 1627 646.011 1621.58 648.822C1614.79 652.17 1607.08 653.165 1599.66 651.65C1596.21 650.893 1592.88 649.67 1589.77 648.013C1587.44 646.804 1585.33 645.228 1583.52 643.344C1581.85 641.632 1580.43 639.696 1579.29 637.591C1574.95 628.308 1574.05 617.78 1573.91 607.643V567.637H1478.98V600.565H1479ZM1834.32 282.237H1740.81V718.02H1834.32V282.237Z" fill="black"/>
</svg>
